<?xml version="1.0" encoding="UTF-8" standalone="no"?>
<!-- Created with Inkscape (http://www.inkscape.org/) -->

<svg
   width="700.04999"
   height="300"
   viewBox="0 0 185.22157 79.374999"
   version="1.1"
   id="svg1"
   xml:space="preserve"
   xmlns="http://www.w3.org/2000/svg"
   xmlns:svg="http://www.w3.org/2000/svg"
   xmlns:rdf="http://www.w3.org/1999/02/22-rdf-syntax-ns#"
   xmlns:cc="http://creativecommons.org/ns#"
   xmlns:dc="http://purl.org/dc/elements/1.1/"><title
     id="title80">Federation of Bangladesh Chambers of Commerce and Industries (FBCCI) - বাংলাদেশ শিল্প ও বণিক সমিতি</title><defs
     id="defs1" /><g
     id="layer1"
     transform="translate(61.032474,-50.928201)"><g
       id="g80"
       transform="matrix(0.43122253,0,0,0.43122253,-34.578323,29.099106)"><g
         id="g17"><g
           id="g16"><path
             id="path27"
             style="font-variation-settings:normal;opacity:1;vector-effect:none;fill:#8f938f;fill-opacity:1;fill-rule:evenodd;stroke:none;stroke-width:0.296787;stroke-linecap:butt;stroke-linejoin:miter;stroke-miterlimit:4;stroke-dasharray:none;stroke-dashoffset:0;stroke-opacity:1;-inkscape-stroke:none;stop-color:#000000;stop-opacity:1"
             d="m 169.05891,68.669385 a 57.576809,57.576809 0 0 0 -57.57685,57.576845 57.576809,57.576809 0 0 0 57.57685,57.57685 57.576809,57.576809 0 0 0 26.99732,-6.72569 l -5.91592,-11.1435 c -0.78983,0.41927 -1.58489,0.82878 -2.39882,1.20044 -1.94805,0.88978 -3.95718,1.63928 -6.01204,2.24276 -2.05483,0.60328 -4.15013,1.05902 -6.2699,1.36374 -2.11993,0.30483 -4.25893,0.45785 -6.40064,0.45785 -2.14173,0 -4.28072,-0.15302 -6.40065,-0.45785 -2.11975,-0.30472 -4.21507,-0.76046 -6.2699,-1.36374 -2.05486,-0.60348 -4.064,-1.35298 -6.01203,-2.24276 -1.94805,-0.88952 -3.83007,-1.91705 -5.6317,-3.07475 -1.80158,-1.15781 -3.51816,-2.44283 -5.13664,-3.84524 -1.6185,-1.40244 -3.13475,-2.91869 -4.53719,-4.53719 -1.40243,-1.61864 -2.68745,-3.3354 -3.84524,-5.13716 -1.15787,-1.80159 -2.18558,-3.68365 -3.07527,-5.63169 -0.88961,-1.94807 -1.63893,-3.9572 -2.24224,-6.01204 -0.60346,-2.05482 -1.05937,-4.15012 -1.36426,-6.2699 -0.30463,-2.11977 -0.45747,-4.25859 -0.45733,-6.40013 -1.3e-4,-2.14154 0.1527,-4.28038 0.45733,-6.40012 0.30489,-2.11979 0.7608,-4.21509 1.36426,-6.26991 0.60331,-2.05482 1.35263,-4.06396 2.24224,-6.01203 0.88969,-1.94806 1.9174,-3.83008 3.07527,-5.6317 1.15779,-1.80176 2.44281,-3.518516 3.84524,-5.137153 1.40244,-1.618496 2.91869,-3.134755 4.53719,-4.537191 1.61848,-1.40241 3.33506,-2.687433 5.13664,-3.845243 1.80163,-1.157694 3.68365,-2.185228 5.6317,-3.074748 1.94803,-0.88978 3.95718,-1.639277 6.01203,-2.242757 2.05483,-0.603283 4.15015,-1.059025 6.2699,-1.363741 2.11993,-0.304833 4.25892,-0.457853 6.40065,-0.457853 2.14171,0 4.28071,0.15302 6.40064,0.457853 2.11977,0.304716 4.21507,0.760458 6.2699,1.363741 2.05485,0.60348 4.06399,1.352977 6.01204,2.242757 1.84246,0.841306 3.62032,1.815405 5.33249,2.896981 l 6.72827,-10.649996 a 57.576809,57.576809 0 0 0 -30.74334,-8.915735 z" /><path
             id="path11"
             style="font-variation-settings:normal;vector-effect:none;fill:#fac318;fill-opacity:1;stroke:none;stroke-width:0.264583;stroke-linecap:butt;stroke-linejoin:miter;stroke-miterlimit:4;stroke-dasharray:none;stroke-dashoffset:0;stroke-opacity:1;-inkscape-stroke:none;stop-color:#000000"
             d="m 199.55679,159.25972 c -0.35029,0.3236 -0.6864,0.66218 -1.04697,0.97462 -1.61848,1.40241 -3.33506,2.68743 -5.13664,3.84524 -1.80162,1.1577 -3.68364,2.18523 -5.63169,3.07475 -1.94805,0.88978 -3.95718,1.63928 -6.01204,2.24276 -0.91782,0.26946 -1.8461,0.49871 -2.77864,0.709 l 19.11201,25.02069 c 0.24494,0.32069 0.68559,0.41815 1.04283,0.23048 l 9.81387,-5.15576 c 0.35724,-0.18768 0.52713,-0.60543 0.40205,-0.98909 z" /><path
             id="path9"
             style="font-variation-settings:normal;vector-effect:none;fill:#dc1868;fill-opacity:1;stroke:none;stroke-width:0.264583;stroke-linecap:butt;stroke-linejoin:miter;stroke-miterlimit:4;stroke-dasharray:none;stroke-dashoffset:0;stroke-opacity:1;-inkscape-stroke:none;stop-color:#000000"
             d="m 155.69383,169.16609 4.04317,31.23479 c 0.0518,0.40019 0.38433,0.7048 0.78754,0.72088 l 11.07685,0.44184 c 0.40321,0.0161 0.75932,-0.26098 0.84284,-0.65578 l 6.51588,-30.80432 c -1.15833,0.26146 -2.32443,0.48826 -3.50056,0.65733 -2.11993,0.30483 -4.25892,0.45785 -6.40064,0.45785 -2.14173,0 -4.28072,-0.15302 -6.40065,-0.45785 -2.11976,-0.30472 -4.21507,-0.76046 -6.2699,-1.36374 -0.23422,-0.0688 -0.46151,-0.15842 -0.69453,-0.231 z" /><path
             id="path8"
             style="font-variation-settings:normal;vector-effect:none;fill:#a41c44;fill-opacity:1;stroke:none;stroke-width:0.264583;stroke-linecap:butt;stroke-linejoin:miter;stroke-miterlimit:4;stroke-dasharray:none;stroke-dashoffset:0;stroke-opacity:1;-inkscape-stroke:none;stop-color:#000000"
             d="m 136.02785,156.72551 -12.11916,29.07936 c -0.15525,0.37248 -0.0192,0.803 0.32195,1.01854 l 9.37152,5.92057 c 0.34115,0.21553 0.78809,0.15391 1.05781,-0.14624 l 21.05091,-23.42596 c -1.81717,-0.56518 -3.6031,-1.2266 -5.33455,-2.01745 -1.94805,-0.88952 -3.83007,-1.91705 -5.6317,-3.07475 -1.80158,-1.15781 -3.51816,-2.44283 -5.13664,-3.84524 -1.26438,-1.0956 -2.44608,-2.27984 -3.58014,-3.50883 z" /><path
             id="path7"
             style="font-variation-settings:normal;vector-effect:none;fill:#14496d;fill-opacity:1;stroke:none;stroke-width:0.264583;stroke-linecap:butt;stroke-linejoin:miter;stroke-miterlimit:4;stroke-dasharray:none;stroke-dashoffset:0;stroke-opacity:1;-inkscape-stroke:none;stop-color:#000000"
             d="m 125.19854,136.13813 -25.0207,19.11253 c -0.320686,0.24494 -0.417631,0.68559 -0.22996,1.04283 l 5.15576,9.81336 c 0.18768,0.35724 0.60543,0.52712 0.98908,0.40204 l 29.9527,-9.76478 c -0.32361,-0.35029 -0.66219,-0.68639 -0.97462,-1.04696 -1.40243,-1.61864 -2.68745,-3.3354 -3.84524,-5.13716 -1.15787,-1.8016 -2.18558,-3.68364 -3.07527,-5.63169 -0.88961,-1.94807 -1.63893,-3.9572 -2.24224,-6.01204 -0.2695,-0.91766 -0.49918,-1.84574 -0.70951,-2.77813 z" /><path
             id="path6"
             style="font-variation-settings:normal;vector-effect:none;fill:#ea6927;fill-opacity:1;stroke:none;stroke-width:0.264583;stroke-linecap:butt;stroke-linejoin:miter;stroke-miterlimit:4;stroke-dasharray:none;stroke-dashoffset:0;stroke-opacity:1;-inkscape-stroke:none;stop-color:#000000"
             d="m 126.13905,112.88167 -31.23479,4.04265 c -0.400191,0.0518 -0.704802,0.38486 -0.720886,0.78807 l -0.441833,11.07684 c -0.01608,0.40321 0.260979,0.75881 0.655774,0.84233 l 30.803805,6.51588 c -0.2616,-1.15849 -0.48814,-2.32479 -0.65733,-3.50108 -0.30463,-2.11977 -0.45747,-4.25859 -0.45733,-6.40013 -1.3e-4,-2.14154 0.1527,-4.28037 0.45733,-6.40012 0.30489,-2.11979 0.7608,-4.21509 1.36426,-6.26991 0.0688,-0.23426 0.15843,-0.46148 0.231,-0.69453 z" /><path
             id="path4"
             style="font-variation-settings:normal;vector-effect:none;fill:#1c97d3;fill-opacity:1;stroke:none;stroke-width:0.264583;stroke-linecap:butt;stroke-linejoin:miter;stroke-miterlimit:4;stroke-dasharray:none;stroke-dashoffset:0;stroke-opacity:1;-inkscape-stroke:none;stop-color:#000000"
             d="m 109.21398,81.032972 c -0.28822,-0.01125 -0.5706,0.12913 -0.73225,0.384989 l -5.92109,9.372038 c -0.21553,0.341146 -0.15339,0.787578 0.14676,1.057299 l 23.42596,21.051942 c 0.56505,-1.81728 1.22618,-3.60349 2.01693,-5.33507 0.88969,-1.94806 1.9174,-3.83008 3.07527,-5.6317 1.15779,-1.80176 2.44281,-3.518514 3.84524,-5.137153 1.09552,-1.264291 2.27993,-2.44563 3.50883,-3.579627 L 109.49975,81.096017 c -0.0931,-0.03881 -0.1897,-0.0593 -0.28577,-0.06305 z" /><path
             id="path3"
             style="font-variation-settings:normal;vector-effect:none;fill:#277e3d;fill-opacity:1;stroke:none;stroke-width:0.264583;stroke-linecap:butt;stroke-linejoin:miter;stroke-miterlimit:4;stroke-dasharray:none;stroke-dashoffset:0;stroke-opacity:1;-inkscape-stroke:none;stop-color:#000000"
             d="m 139.2907,57.046839 c -0.0954,0.01226 -0.18974,0.04145 -0.27905,0.08837 l -9.81388,5.155757 c -0.35724,0.187676 -0.5266,0.605428 -0.40152,0.989087 l 9.76426,29.95321 c 0.35046,-0.323774 0.68673,-0.662541 1.04748,-0.975134 1.61848,-1.402412 3.33506,-2.687432 5.13664,-3.845243 1.80163,-1.157695 3.68365,-2.185227 5.6317,-3.074748 1.94804,-0.889781 3.95718,-1.639276 6.01203,-2.242757 0.91766,-0.269419 1.84575,-0.498744 2.77813,-0.709001 L 140.05448,57.365682 c -0.18371,-0.240511 -0.47769,-0.355623 -0.76378,-0.318843 z" /><path
             id="path5"
             style="font-variation-settings:normal;display:inline;vector-effect:none;fill:#e5223b;fill-opacity:1;stroke:none;stroke-width:0.264583;stroke-linecap:butt;stroke-linejoin:miter;stroke-miterlimit:4;stroke-dasharray:none;stroke-dashoffset:0;stroke-opacity:1;-inkscape-stroke:none;stop-color:#000000"
             d="m 166.51591,50.928866 c -0.40321,-0.01608 -0.75932,0.260979 -0.84284,0.655774 l -6.51588,30.804321 c 1.15848,-0.261507 2.32478,-0.488233 3.50107,-0.657324 2.11993,-0.304833 4.25892,-0.457853 6.40065,-0.457853 2.14172,0 4.28071,0.15302 6.40064,0.457853 2.11977,0.304716 4.21507,0.760457 6.2699,1.363741 0.23407,0.06874 0.46116,0.15847 0.69402,0.230994 L 178.3803,52.091586 c -0.0518,-0.400192 -0.38434,-0.704802 -0.78755,-0.720886 z" /><path
             id="path15"
             style="font-variation-settings:normal;vector-effect:none;fill:#be8d2d;fill-opacity:1;stroke:none;stroke-width:0.264583;stroke-linecap:butt;stroke-linejoin:miter;stroke-miterlimit:4;stroke-dasharray:none;stroke-dashoffset:0;stroke-opacity:1;-inkscape-stroke:none;stop-color:#000000"
             d="m 203.95962,59.628077 c -0.18807,0.02605 -0.36744,0.116577 -0.5023,0.26665 l -21.05091,23.42596 c 1.81733,0.565207 3.60348,1.226532 5.33508,2.017448 1.94805,0.889521 3.83007,1.917053 5.63169,3.074748 1.80158,1.157811 3.51816,2.442831 5.13664,3.845243 1.26429,1.095515 2.44563,2.27993 3.57963,3.50883 l 12.11916,-29.079362 c 0.15525,-0.372472 0.0197,-0.803011 -0.32143,-1.018542 l -9.37204,-5.920569 c -0.17057,-0.107767 -0.36745,-0.146458 -0.55552,-0.120406 z" /></g><path
           id="path13"
           style="font-weight:bold;font-size:187.206px;line-height:1.25;font-family:'Levenim MT';-inkscape-font-specification:'Levenim MT Bold';letter-spacing:-17.0656px;fill:#171c49;fill-opacity:1;stroke-width:4.68013"
           d="m 280.49138,58.874634 c -13.04102,0 -25.19841,3.169224 -36.47219,9.506913 -23.46164,13.162896 -35.19268,33.455763 -35.19268,60.878453 0,20.90219 6.64218,37.93476 19.92694,51.09766 13.34572,13.16288 30.46987,19.74453 51.37206,19.74453 12.06599,0 22.73062,-2.13282 31.9934,-6.39858 8.34869,-3.90011 17.15422,-10.36015 26.41699,-19.37918 L 321.16848,156.2258 c -6.58144,6.5205 -12.67567,11.24304 -18.28208,14.16812 -6.70334,3.41261 -14.16822,5.11907 -22.39502,5.11907 -8.71433,0 -16.6366,-1.9807 -23.76651,-5.94175 -14.93013,-8.28776 -22.39501,-21.69422 -22.39501,-40.21977 0,-12.91914 4.38724,-23.73589 13.1625,-32.450216 8.77526,-8.775265 19.62255,-13.163021 32.54168,-13.163021 15.23484,0 28.94658,6.428992 41.13444,19.287197 L 339.0847,85.931897 C 323.60612,67.893856 304.0749,58.874634 280.49138,58.874634 Z M -61.032474,62.256857 V 196.71997 h 25.320418 V 136.20686 H 5.6962692 V 111.61818 H -35.712056 V 87.211923 H 5.6962692 V 62.256857 Z m 72.424003,0 V 196.71997 h 37.66075 c 10.847189,0 19.348486,-1.55384 25.503353,-4.66173 6.459561,-3.16885 11.547921,-7.89189 15.265218,-14.16865 3.778234,-6.33768 5.667354,-13.13252 5.667354,-20.38428 0,-15.84422 -7.861243,-27.45317 -23.583573,-34.82682 9.20183,-6.88613 13.802775,-15.44797 13.802775,-25.685769 0,-8.043983 -2.468118,-14.960922 -7.404199,-20.750155 C 73.610882,70.636155 67.303469,66.766331 59.381364,64.633456 53.531195,63.049034 44.573011,62.256857 32.507036,62.256857 Z m 331.061961,0 V 196.71997 h 25.41189 V 62.256857 Z M 36.986349,86.663119 h 6.58151 c 11.578452,0 17.367416,4.570415 17.367416,13.711311 0,9.75027 -6.124257,14.62546 -18.373039,14.62546 h -5.575887 z m 0,51.189121 h 5.301485 c 18.708336,0 28.062886,6.24637 28.062886,18.73891 0,6.64236 -3.047122,11.15225 -9.141044,13.52889 -3.839169,1.46254 -9.780776,2.19366 -17.824751,2.19366 h -6.398576 z" /></g><path
         id="path80"
         style="font-weight:800;font-stretch:expanded;font-size:16.5295px;line-height:1.25;font-family:'Bebas Neue Pro';-inkscape-font-specification:'Bebas Neue Pro Ultra-Bold Expanded';fill:#171c49;fill-opacity:1;stroke-width:0.41324"
         d="m 2.537806,222.58764 c -1.1339868,0 -2.00698138,0.28928 -2.61844483,0.86816 -0.61146343,0.57891 -0.91725667,1.39263 -0.91725667,2.4412 v 5.17746 c 0,1.04857 0.30579324,1.86229 0.91725667,2.44119 0.61146345,0.5789 1.48445803,0.86817 2.61844483,0.86817 1.1339867,0 2.0064646,-0.28927 2.617928,-0.86817 0.6114634,-0.5789 0.9172567,-1.39262 0.9172567,-2.44119 V 225.897 c 0,-1.04857 -0.3057933,-1.86229 -0.9172567,-2.4412 -0.6114634,-0.57888 -1.4839413,-0.86816 -2.617928,-0.86816 z m 20.678324,0 c -1.133987,0 -2.006465,0.28928 -2.617929,0.86816 -0.611462,0.57891 -0.917256,1.39263 -0.917256,2.4412 v 5.17746 c 0,1.04857 0.305794,1.86229 0.917256,2.44119 0.611464,0.5789 1.483942,0.86817 2.617929,0.86817 1.133985,0 2.00698,-0.28927 2.618445,-0.86817 0.611463,-0.5789 0.917256,-1.39262 0.917256,-2.44119 V 225.897 c 0,-1.04857 -0.305793,-1.86229 -0.917256,-2.4412 -0.611465,-0.57888 -1.48446,-0.86816 -2.618445,-0.86816 z m 45.326433,0 c -1.089517,0 -1.940319,0.29488 -2.551783,0.8847 -0.611463,0.5789 -0.917256,1.38701 -0.917256,2.42466 v 5.21001 c 0,1.02673 0.305794,1.82974 0.917256,2.40864 0.611464,0.5789 1.462266,0.86817 2.551783,0.86817 1.089516,0 1.939802,-0.28927 2.551265,-0.86817 0.611464,-0.5789 0.917257,-1.38191 0.917257,-2.40864 v -3.44061 h -3.351733 v 2.08101 h 1.150317 v 1.4087 c 0,0.81919 -0.399982,1.22886 -1.200443,1.22886 -0.800463,0 -1.200961,-0.40967 -1.200961,-1.22886 v -5.34076 c 0,-0.81919 0.400497,-1.22887 1.200961,-1.22887 0.800461,0 1.200443,0.40968 1.200443,1.22887 v 0.73691 h 2.201416 V 225.897 c 0,-1.03765 -0.305793,-1.84576 -0.917257,-2.42466 -0.611463,-0.58982 -1.461749,-0.8847 -2.551265,-0.8847 z m 40.890007,0 c -1.08951,0 -1.93979,0.28365 -2.55126,0.85162 -0.60035,0.55707 -0.90072,1.31619 -0.90072,2.27739 0,0.83012 0.18347,1.51325 0.55035,2.04845 0.378,0.53521 1.05617,1.03212 2.0345,1.49086 0.83382,0.41507 1.37341,0.73188 1.61799,0.95033 0.24459,0.20754 0.3669,0.55139 0.3669,1.03199 0,0.38229 -0.11148,0.68278 -0.33383,0.90123 -0.22234,0.20753 -0.51678,0.31109 -0.88367,0.31109 -0.3891,0 -0.68948,-0.10356 -0.90072,-0.31109 -0.20011,-0.21845 -0.30023,-0.51894 -0.30023,-0.90123 v -0.50798 h -2.2009 v 0.50798 c 0,0.98303 0.29443,1.75288 0.88367,2.30993 0.60034,0.55706 1.45063,0.83561 2.55127,0.83561 1.11173,0 1.97339,-0.28365 2.58485,-0.85163 0.62257,-0.56797 0.93379,-1.34906 0.93379,-2.34301 0,-0.86288 -0.17754,-1.56743 -0.5333,-2.11357 -0.35575,-0.54613 -1.02851,-1.04864 -2.01797,-1.5074 -0.83381,-0.39322 -1.37882,-0.6988 -1.63452,-0.91725 -0.25571,-0.21846 -0.38344,-0.54089 -0.38344,-0.96687 0,-0.36044 0.10013,-0.64462 0.30024,-0.85215 0.20011,-0.20752 0.4783,-0.31108 0.83405,-0.31108 0.76712,0 1.15033,0.41528 1.15033,1.2454 v 0.31108 h 2.20141 v -0.32762 c 0,-0.99396 -0.28901,-1.76941 -0.86713,-2.32647 -0.57811,-0.55706 -1.41214,-0.83561 -2.50166,-0.83561 z m 20.16208,0 c -1.10063,0 -1.95144,0.28928 -2.55179,0.86816 -0.58922,0.56798 -0.88365,1.38171 -0.88365,2.4412 v 5.17746 c 0,1.05949 0.29443,1.87883 0.88365,2.45773 0.60035,0.56798 1.45116,0.85163 2.55179,0.85163 1.10064,0 1.94551,-0.28365 2.53473,-0.85163 0.58923,-0.56797 0.88366,-1.38732 0.88366,-2.45773 v -1.16324 h -2.20141 v 1.24489 c 0,0.86288 -0.38914,1.29449 -1.16737,1.29449 -0.36687,0 -0.64997,-0.10918 -0.85008,-0.32762 -0.20011,-0.22938 -0.30024,-0.55181 -0.30024,-0.96687 v -5.34076 c 0,-0.41506 0.10013,-0.73188 0.30024,-0.95033 0.20011,-0.22938 0.48321,-0.34416 0.85008,-0.34416 0.77823,0 1.16737,0.4316 1.16737,1.29449 v 0.91725 h 2.20141 v -0.8356 c 0,-1.07042 -0.29443,-1.88975 -0.88366,-2.45774 -0.58922,-0.56797 -1.43409,-0.85162 -2.53473,-0.85162 z m 62.25253,0 c -1.08951,0 -1.94032,0.28365 -2.55178,0.85162 -0.60035,0.55707 -0.9002,1.31619 -0.9002,2.27739 0,0.83012 0.18348,1.51325 0.55035,2.04845 0.37799,0.53521 1.05616,1.03212 2.0345,1.49086 0.83382,0.41507 1.37288,0.73188 1.61748,0.95033 0.24458,0.20754 0.3669,0.55139 0.3669,1.03199 0,0.38229 -0.11097,0.68278 -0.33332,0.90123 -0.22235,0.20753 -0.5173,0.31109 -0.88418,0.31109 -0.38911,0 -0.68897,-0.10356 -0.90021,-0.31109 -0.20011,-0.21845 -0.30023,-0.51894 -0.30023,-0.90123 v -0.50798 h -2.20142 v 0.50798 c 0,0.98303 0.29444,1.75288 0.88367,2.30993 0.60034,0.55706 1.45114,0.83561 2.55178,0.83561 1.11174,0 1.9734,-0.28365 2.58485,-0.85163 0.62258,-0.56797 0.9338,-1.34906 0.9338,-2.34301 0,-0.86288 -0.17806,-1.56743 -0.53382,-2.11357 -0.35576,-0.54613 -1.0285,-1.04864 -2.01796,-1.5074 -0.83382,-0.39322 -1.37831,-0.6988 -1.63401,-0.91725 -0.2557,-0.21846 -0.38345,-0.54089 -0.38345,-0.96687 0,-0.36044 0.10014,-0.64462 0.30025,-0.85215 0.20011,-0.20752 0.47778,-0.31108 0.83354,-0.31108 0.76711,0 1.15083,0.41528 1.15083,1.2454 v 0.31108 h 2.20142 v -0.32762 c 0,-0.99396 -0.28954,-1.76941 -0.86765,-2.32647 -0.57811,-0.55706 -1.41162,-0.83561 -2.50114,-0.83561 z m 11.25668,0 c -1.13398,0 -2.00698,0.28928 -2.61844,0.86816 -0.61147,0.57891 -0.91726,1.39263 -0.91726,2.4412 v 5.17746 c 0,1.04857 0.30579,1.86229 0.91726,2.44119 0.61146,0.5789 1.48446,0.86817 2.61844,0.86817 1.13399,0 2.00646,-0.28927 2.61793,-0.86817 0.61146,-0.5789 0.91725,-1.39262 0.91725,-2.44119 V 225.897 c 0,-1.04857 -0.30579,-1.86229 -0.91725,-2.4412 -0.61147,-0.57888 -1.48394,-0.86816 -2.61793,-0.86816 z m 18.91048,0 c -1.10064,0 -1.95092,0.28928 -2.55127,0.86816 -0.58923,0.56798 -0.88367,1.38171 -0.88367,2.4412 v 5.17746 c 0,1.05949 0.29444,1.87883 0.88367,2.45773 0.60035,0.56798 1.45063,0.85163 2.55127,0.85163 1.10062,0 1.94601,-0.28365 2.53524,-0.85163 0.58922,-0.56797 0.88367,-1.38732 0.88367,-2.45773 v -1.16324 h -2.20142 v 1.2454 c 0,0.8629 -0.38914,1.29398 -1.16737,1.29398 -0.36688,0 -0.65048,-0.10918 -0.8506,-0.32762 -0.20011,-0.22938 -0.29972,-0.5513 -0.29972,-0.96636 v -5.34127 c 0,-0.41506 0.0996,-0.73188 0.29972,-0.95033 0.20012,-0.22938 0.48372,-0.34416 0.8506,-0.34416 0.77823,0 1.16737,0.4316 1.16737,1.29449 v 0.91725 h 2.20142 v -0.8356 c 0,-1.07042 -0.29445,-1.88924 -0.88367,-2.45722 -0.58923,-0.56798 -1.43462,-0.85214 -2.53524,-0.85214 z m 8.28837,0 c -1.13398,0 -2.00697,0.28928 -2.61844,0.86816 -0.61146,0.57891 -0.91674,1.39263 -0.91674,2.4412 v 5.17746 c 0,1.04857 0.30528,1.86229 0.91674,2.44119 0.61147,0.5789 1.48446,0.86817 2.61844,0.86817 1.134,0 2.00647,-0.28927 2.61793,-0.86817 0.61146,-0.5789 0.91726,-1.39262 0.91726,-2.44119 V 225.897 c 0,-1.04857 -0.3058,-1.86229 -0.91726,-2.4412 -0.61146,-0.57888 -1.48393,-0.86816 -2.61793,-0.86816 z m 47.84411,0 c -1.10063,0 -1.95091,0.28928 -2.55126,0.86816 -0.58924,0.56798 -0.88367,1.38171 -0.88367,2.4412 v 5.17746 c 0,1.05949 0.29443,1.87883 0.88367,2.45773 0.60035,0.56798 1.45063,0.85214 2.55126,0.85214 1.10064,0 1.94551,-0.28416 2.53473,-0.85214 0.58923,-0.56797 0.88419,-1.38732 0.88419,-2.45773 v -1.16324 h -2.20142 v 1.2454 c 0,0.8629 -0.38915,1.29398 -1.16737,1.29398 -0.36688,0 -0.65048,-0.10918 -0.8506,-0.32762 -0.20011,-0.22938 -0.30023,-0.5513 -0.30023,-0.96636 v -5.34127 c 0,-0.41506 0.10012,-0.73188 0.30023,-0.95033 0.20012,-0.22938 0.48372,-0.34416 0.8506,-0.34416 0.77822,0 1.16737,0.4316 1.16737,1.29449 v 0.91725 h 2.20142 v -0.8356 c 0,-1.07042 -0.29496,-1.88924 -0.88419,-2.45722 -0.58922,-0.56798 -1.43409,-0.85214 -2.53473,-0.85214 z m 18.97766,0 c -1.12288,0 -1.98451,0.26732 -2.58486,0.80253 -0.60034,0.53522 -0.9002,1.29434 -0.9002,2.27738 v 0.31162 c 0,1.19056 0.55584,1.9553 1.6676,2.29391 v 0.0491 c -1.14511,0.37137 -1.71773,1.26162 -1.71773,2.67063 v 0.60616 c 0,1.85686 0.86707,2.78536 2.60139,2.78536 1.12287,0 1.92335,-0.41528 2.40141,-1.2454 0.0556,0.67721 0.1281,1.03739 0.21704,1.08107 h 2.08462 c -0.20011,-0.61166 -0.30023,-1.46874 -0.30023,-2.57193 v -2.29392 h 0.65008 v -1.91668 h -3.75222 c -1.03393,0 -1.55081,-0.45354 -1.55081,-1.36013 v -0.37671 c 0,-0.80828 0.4227,-1.21233 1.26762,-1.21233 0.81158,0 1.21698,0.3714 1.21698,1.11414 v 0.37673 h 2.16835 v -0.13127 c 0,-1.05949 -0.29498,-1.86759 -0.88418,-2.42465 -0.58923,-0.55706 -1.45089,-0.83561 -2.58486,-0.83561 z m 42.24134,0 c -1.08951,0 -1.94032,0.28416 -2.55177,0.85214 -0.60035,0.55706 -0.90021,1.31619 -0.90021,2.27738 0,0.83013 0.18348,1.51274 0.55036,2.04794 0.378,0.53521 1.05616,1.03212 2.0345,1.49086 0.83382,0.41507 1.37288,0.73188 1.61747,0.95033 0.24458,0.20754 0.3669,0.55139 0.3669,1.03199 0,0.38229 -0.11096,0.68278 -0.33332,0.90123 -0.22234,0.20753 -0.5173,0.31109 -0.88418,0.31109 -0.38911,0 -0.68897,-0.10356 -0.90021,-0.31109 -0.20011,-0.21845 -0.30023,-0.51894 -0.30023,-0.90123 v -0.50798 h -2.20142 v 0.50798 c 0,0.98303 0.29443,1.75339 0.88367,2.31045 0.60035,0.55706 1.45115,0.8356 2.55179,0.8356 1.11174,0 1.97339,-0.28416 2.58485,-0.85214 0.62258,-0.56797 0.93379,-1.34906 0.93379,-2.34301 0,-0.86288 -0.17806,-1.56743 -0.53382,-2.11357 -0.35576,-0.54613 -1.02798,-1.04864 -2.01745,-1.5074 -0.83381,-0.39322 -1.37882,-0.6988 -1.63452,-0.91725 -0.25571,-0.21846 -0.38344,-0.54089 -0.38344,-0.96687 0,-0.36044 0.10013,-0.64409 0.30024,-0.85163 0.20011,-0.20753 0.47778,-0.3116 0.83354,-0.3116 0.76711,0 1.15084,0.41528 1.15084,1.2454 v 0.31108 h 2.20141 v -0.32762 c 0,-0.99396 -0.28903,-1.76941 -0.86712,-2.32647 -0.57811,-0.55706 -1.41215,-0.83561 -2.50167,-0.83561 z m -400.398294,0.16381 V 234.22 h 2.334741 v -4.73511 h 3.001884 v -1.99884 h -3.001884 v -2.73575 h 3.835425 v -1.99885 z m 7.470862,0 V 234.22 h 6.353617 v -1.99884 h -4.018877 v -2.81792 H -48.025 v -1.99884 h -3.201872 v -2.6541 h 4.018877 v -1.99885 z m 7.788155,0 V 234.22 h 3.551721 c 1.133985,0 1.995628,-0.27294 2.584855,-0.81907 0.600345,-0.55705 0.900721,-1.36516 0.900721,-2.42466 v -4.98109 c 0,-1.0595 -0.300376,-1.86199 -0.900721,-2.40812 -0.589227,-0.55706 -1.45087,-0.83561 -2.584855,-0.83561 z m 8.671305,0 V 234.22 h 6.353618 v -1.99884 h -4.018876 v -2.81792 h 3.201871 v -1.99884 h -3.201871 v -2.6541 h 4.018876 v -1.99885 z m 7.788155,0 V 234.22 h 2.334742 v -4.58731 h 0.800468 c 0.544756,0 0.922548,0.11479 1.13378,0.34416 0.22235,0.21845 0.333313,0.60057 0.333313,1.1467 v 1.49086 c 0,0.76459 0.0671,1.29976 0.200504,1.60559 h 2.384351 c -0.17788,-0.36045 -0.266651,-0.88999 -0.266651,-1.58904 v -1.34359 c 0,-0.8192 -0.122316,-1.44723 -0.366902,-1.88413 -0.244586,-0.44783 -0.633729,-0.74271 -1.167371,-0.8847 v -0.0491 c 1.011694,-0.37136 1.517738,-1.15806 1.517738,-2.35955 v -0.44235 c 0,-0.99396 -0.283602,-1.72554 -0.850594,-2.19521 -0.566995,-0.4806 -1.434053,-0.72089 -2.601393,-0.72089 z m 10.539408,0 -2.41794,11.46855 h 2.217953 l 0.383438,-2.08049 h 2.617928 l 0.38344,2.08049 h 2.384867 l -2.41794,-11.46855 z m 5.286499,0 v 1.99885 h 2.434477 v 9.4697 h 2.3347418 v -9.4697 h 2.4344767 v -1.99885 z m 8.5049081,0 V 234.22 h 2.3342244 v -11.46855 z m 12.7072346,0 V 234.22 H 9.80868 v -8.15919 L 12.676722,234.22 H 15.028 v -11.46855 h -2.084111 v 6.63526 l -2.334741,-6.63526 z m 20.6783233,0 V 234.22 h 2.334741 v -4.7346 h 3.001884 v -1.99883 h -3.001884 v -2.73627 h 3.835425 v -1.99885 z m 10.472746,0 V 234.22 h 3.735689 c 1.178458,0 2.050935,-0.25662 2.617928,-0.76998 0.566994,-0.52428 0.850595,-1.32168 0.850595,-2.3921 v -0.19637 c 0,-1.41995 -0.578039,-2.32142 -1.734262,-2.7037 v -0.0491 c 1.000577,-0.3386 1.500684,-1.09774 1.500684,-2.27738 v -0.21291 c 0,-0.97212 -0.283084,-1.69298 -0.850077,-2.16266 -0.566994,-0.46966 -1.43457,-0.70435 -2.601908,-0.70435 z m 10.42262,0 -2.41794,11.46855 h 2.217952 l 0.383439,-2.08049 h 2.618444 l 0.38344,2.08049 h 2.384867 l -2.41794,-11.46855 z m 6.820772,0 V 234.22 h 2.084628 v -8.15919 l 2.868042,8.15919 h 2.351794 v -11.46855 h -2.084627 v 6.63526 l -2.334741,-6.63526 z m 17.510042,0 V 234.22 h 6.170167 v -1.99884 h -3.835426 v -9.46971 z m 9.372038,0 -2.41794,11.46855 h 2.217952 l 0.383439,-2.08049 h 2.618445 l 0.383439,2.08049 h 2.384868 l -2.417941,-11.46855 z m 6.820772,0 V 234.22 h 3.552238 c 1.133987,0 1.995627,-0.27294 2.584855,-0.81907 0.600347,-0.55705 0.900204,-1.36516 0.900204,-2.42466 v -4.98109 c 0,-1.0595 -0.299857,-1.86199 -0.900204,-2.40812 -0.589228,-0.55706 -1.450868,-0.83561 -2.584855,-0.83561 z m 8.671823,0 V 234.22 h 6.353621 v -1.99884 h -4.01888 v -2.81792 h 3.20187 v -1.99884 h -3.20187 v -2.6541 h 4.01888 v -1.99885 z m 15.842451,0 V 234.22 h 2.33473 v -4.81676 h 2.50115 V 234.22 h 2.33473 v -11.46855 h -2.33473 v 4.65295 h -2.50115 v -4.65295 z m 20.16155,0 V 234.22 h 2.33474 v -4.81676 h 2.50166 V 234.22 h 2.33474 v -11.46855 h -2.33474 v 4.65295 h -2.50166 v -4.65295 z m 10.83966,0 -2.41795,11.46855 h 2.21796 l 0.38343,-2.08049 h 2.61845 l 0.38344,2.08049 h 2.38486 l -2.41845,-11.46855 z m 6.82076,0 V 234.22 h 2.0345 v -8.53591 l 1.73427,8.53591 h 1.9513 l 1.73426,-8.53591 V 234.22 h 2.2009 v -11.46855 h -3.28507 l -1.53427,7.99538 -1.55082,-7.99538 z m 11.48974,0 V 234.22 h 3.73569 c 1.17845,0 2.05094,-0.25662 2.61793,-0.76998 0.56699,-0.52428 0.8506,-1.32168 0.8506,-2.3921 v -0.19637 c 0,-1.41995 -0.57805,-2.32142 -1.73426,-2.7037 v -0.0491 c 1.00057,-0.3386 1.50068,-1.09774 1.50068,-2.27738 v -0.21291 c 0,-0.97212 -0.28308,-1.69298 -0.85008,-2.16266 -0.567,-0.46966 -1.43456,-0.70435 -2.60191,-0.70435 z m 8.65529,0 V 234.22 h 6.35361 v -1.99884 h -4.01887 v -2.81792 h 3.20187 v -1.99884 h -3.20187 v -2.6541 h 4.01887 v -1.99885 z m 7.78764,0 V 234.22 h 2.33474 v -4.58731 h 0.80047 c 0.54475,0 0.92254,0.11479 1.13378,0.34416 0.22235,0.21845 0.33383,0.60057 0.33383,1.1467 v 1.49086 c 0,0.76459 0.0666,1.29976 0.19998,1.60559 h 2.38488 c -0.17789,-0.36045 -0.26718,-0.88999 -0.26718,-1.58904 v -1.34359 c 0,-0.8192 -0.12231,-1.44723 -0.3669,-1.88413 -0.24458,-0.44783 -0.63373,-0.74271 -1.16737,-0.8847 v -0.0491 c 1.0117,-0.37136 1.51774,-1.15806 1.51774,-2.35955 v -0.44235 c 0,-0.99396 -0.2836,-1.72554 -0.8506,-2.19521 -0.56697,-0.4806 -1.43405,-0.72089 -2.60139,-0.72089 z m 28.19983,0 V 234.22 h 2.33474 v -4.7346 h 3.00136 v -1.99883 h -3.00136 v -2.73627 h 3.83542 v -1.99885 z m 27.19885,0 V 234.22 h 2.0345 v -8.53591 l 1.73426,8.53591 h 1.95131 l 1.73426,-8.53591 V 234.22 h 2.20142 v -11.46855 h -3.28507 l -1.53428,7.99538 -1.55133,-7.99538 z m 11.49026,0 V 234.22 h 2.0345 v -8.53591 l 1.73425,8.53591 h 1.9508 l 1.73477,-8.53591 V 234.22 h 2.20091 v -11.46855 h -3.28508 l -1.53427,7.99538 -1.55081,-7.99538 z m 11.48974,0 V 234.22 h 6.35361 v -1.99884 h -4.01887 v -2.81792 h 3.20187 v -1.99884 h -3.20187 v -2.6541 h 4.01887 v -1.99885 z m 7.78763,0 V 234.22 h 2.33475 v -4.58731 h 0.80047 c 0.54475,0 0.92306,0.11479 1.13429,0.34416 0.22235,0.21845 0.33332,0.60057 0.33332,1.1467 v 1.49086 c 0,0.76459 0.0666,1.29976 0.19998,1.60559 h 2.38487 c -0.17788,-0.36045 -0.26666,-0.88999 -0.26666,-1.58904 v -1.34359 c 0,-0.8192 -0.12231,-1.44723 -0.3669,-1.88413 -0.24458,-0.44783 -0.63373,-0.74271 -1.16736,-0.8847 v -0.0491 c 1.01169,-0.37136 1.51721,-1.15753 1.51721,-2.35903 v -0.44287 c 0,-0.99396 -0.28308,-1.72554 -0.85007,-2.19521 -0.56699,-0.4806 -1.43457,-0.72089 -2.60192,-0.72089 z m 16.79329,0 V 234.22 h 6.35362 v -1.99884 h -4.01887 v -2.81792 h 3.20187 v -1.99884 h -3.20187 v -2.6541 h 4.01887 v -1.99885 z m 22.59655,0 V 234.22 h 2.33475 v -11.46855 z m 4.16874,0 V 234.22 h 2.08463 v -8.15919 l 2.86856,8.15919 h 2.35128 v -11.46855 h -2.08463 v 6.63578 l -2.33474,-6.63578 z m 9.13898,0 V 234.22 h 3.55173 c 1.13398,0 1.99562,-0.27294 2.58485,-0.81907 0.60035,-0.55705 0.90072,-1.36516 0.90072,-2.42466 v -4.98057 c 0,-1.0595 -0.30037,-1.86251 -0.90072,-2.40864 -0.58923,-0.55706 -1.45087,-0.83561 -2.58485,-0.83561 z m 8.5881,0 v 8.32301 c 0,1.05949 0.29445,1.87883 0.88367,2.45773 0.60035,0.56798 1.46199,0.85214 2.58486,0.85214 1.12287,0 1.9845,-0.28416 2.58485,-0.85214 0.60035,-0.5789 0.90072,-1.39824 0.90072,-2.45773 v -8.32301 h -2.25154 v 8.45426 c 0,0.78643 -0.39455,1.17978 -1.1839,1.17978 -0.78935,0 -1.18391,-0.39335 -1.18391,-1.17978 v -8.45426 z m 16.17628,0 v 1.99885 h 2.43447 v 9.4697 h 2.33475 v -9.4697 h 2.43448 v -1.99885 z m 8.5049,0 V 234.22 h 2.33475 v -4.58731 h 0.80047 c 0.54476,0 0.92255,0.11479 1.13378,0.34416 0.22234,0.21845 0.33331,0.60057 0.33331,1.1467 v 1.49086 c 0,0.76459 0.0671,1.29976 0.20051,1.60559 h 2.38435 c -0.17788,-0.36045 -0.26665,-0.88999 -0.26665,-1.58904 v -1.34359 c 0,-0.8192 -0.12232,-1.44723 -0.36691,-1.88413 -0.24458,-0.44783 -0.63373,-0.74271 -1.16737,-0.8847 v -0.0491 c 1.0117,-0.37136 1.51774,-1.15753 1.51774,-2.35903 v -0.44287 c 0,-0.99396 -0.2836,-1.72554 -0.85059,-2.19521 -0.56701,-0.4806 -1.43405,-0.72089 -2.6014,-0.72089 z m 7.67085,0 2.81844,6.73395 v 4.7346 h 2.33474 v -4.7346 l 2.81792,-6.73395 h -2.30115 l -1.58441,4.07986 -1.56734,-4.07986 z M 2.537806,224.58648 c 0.8004612,0 1.2004435,0.40968 1.2004435,1.22887 v 5.34076 c 0,0.81919 -0.3999823,1.22886 -1.2004435,1.22886 -0.8004612,0 -1.2009603,-0.40967 -1.2009603,-1.22886 v -5.34076 c 0,-0.81919 0.4004991,-1.22887 1.2009603,-1.22887 z m 20.678324,0 c 0.800461,0 1.20096,0.40968 1.20096,1.22887 v 5.34076 c 0,0.81919 -0.400499,1.22886 -1.20096,1.22886 -0.800463,0 -1.200444,-0.40967 -1.200444,-1.22886 v -5.34076 c 0,-0.81919 0.399981,-1.22887 1.200444,-1.22887 z m 179.88773,0 c 0.80047,0 1.20045,0.40968 1.20045,1.22887 v 5.34127 c 0,0.81921 -0.39998,1.22835 -1.20045,1.22835 -0.80046,0 -1.20096,-0.40914 -1.20096,-1.22835 v -5.34127 c 0,-0.81919 0.4005,-1.22887 1.20096,-1.22887 z m 27.19885,0 c 0.80046,0 1.20045,0.40968 1.20045,1.22887 v 5.34127 c 0,0.81921 -0.39999,1.22887 -1.20045,1.22887 -0.80045,0 -1.20043,-0.40966 -1.20043,-1.22887 v -5.34127 c 0,-0.81919 0.39998,-1.22887 1.20043,-1.22887 z m -273.741943,0.16382 h 1.184424 c 0.411347,0 0.711206,0.0979 0.900203,0.29455 0.188998,0.18569 0.283704,0.4918 0.283704,0.91777 v 5.04621 c 0,0.42598 -0.09471,0.73719 -0.283704,0.93379 -0.188997,0.18569 -0.488856,0.27854 -0.900203,0.27854 h -1.184424 z m 16.459978,0 h 1.100708 c 0.755989,0 1.133781,0.38774 1.133781,1.16323 v 0.44235 c 0,0.44783 -0.110964,0.77536 -0.333312,0.98289 -0.222351,0.1966 -0.573045,0.29507 -1.051101,0.29507 h -0.850076 z m 68.189118,0 h 1.117245 c 0.411348,0 0.711722,0.0928 0.90072,0.27854 0.188998,0.17476 0.283704,0.46402 0.283704,0.86816 v 0.2129 c 0,0.80828 -0.467078,1.21285 -1.400948,1.21285 h -0.900721 z m 50.946244,0 h 1.183907 c 0.41135,0 0.711724,0.0985 0.900721,0.29507 0.188998,0.18569 0.283187,0.49128 0.283187,0.91725 v 5.04621 c 0,0.42598 -0.09419,0.73719 -0.283187,0.93379 -0.188997,0.18569 -0.489371,0.27854 -0.900721,0.27854 h -1.183907 z m 73.825993,0 h 1.11724 c 0.41135,0 0.71172,0.0928 0.90072,0.27854 0.189,0.17476 0.28318,0.46402 0.28318,0.86816 v 0.2129 c 0,0.80828 -0.46655,1.21285 -1.40042,1.21285 h -0.90072 z m 16.44292,0 h 1.1007 c 0.756,0 1.13378,0.38774 1.13378,1.16323 v 0.44235 c 0,0.44783 -0.11095,0.77536 -0.33331,0.98289 -0.22235,0.1966 -0.57252,0.29507 -1.05058,0.29507 h -0.85059 z m 86.16632,0 h 1.1007 c 0.75599,0 1.1343,0.38774 1.1343,1.16323 v 0.44235 c 0,0.44783 -0.11148,0.77536 -0.33383,0.98289 -0.22235,0.1966 -0.57253,0.29507 -1.05058,0.29507 h -0.85059 z m 52.69755,0 h 1.18391 c 0.41134,0 0.7112,0.0985 0.9002,0.29507 0.189,0.18569 0.28371,0.49128 0.28371,0.91725 v 5.04621 c 0,0.42598 -0.0947,0.73719 -0.28371,0.93379 -0.189,0.18569 -0.48886,0.27854 -0.9002,0.27854 h -1.18391 z m 33.26929,0 h 1.10019 c 0.756,0 1.1343,0.38774 1.1343,1.16323 v 0.44235 c 0,0.44783 -0.11148,0.77536 -0.33383,0.98289 -0.22236,0.1966 -0.57253,0.29507 -1.05059,0.29507 h -0.85007 z m -371.848621,0.29455 0.95033,5.12838 h -1.884122 z m 68.072847,5.2e-4 0.95033,5.12786 h -1.884639 z m 33.702336,0 0.950847,5.12786 h -1.88464 z m 62.336248,0 0.95084,5.12786 h -1.88463 z m -105.611127,4.27622 h 1.034045 c 0.566994,0 0.956139,0.10357 1.167371,0.3111 0.222352,0.20752 0.333314,0.57892 0.333314,1.11414 v 0.31109 c 0,0.41506 -0.08877,0.71555 -0.266651,0.90124 -0.177881,0.17476 -0.466899,0.262 -0.867131,0.262 h -1.400948 z m 124.772237,0 h 1.03404 c 0.56699,0 0.95614,0.10357 1.16737,0.3111 0.22235,0.20752 0.33331,0.57892 0.33331,1.11414 v 0.31109 c 0,0.41506 -0.0888,0.71555 -0.26665,0.90124 -0.17787,0.17476 -0.4669,0.262 -0.86713,0.262 h -1.40094 z m 131.44261,0.0326 h 0.91726 v 1.83503 c 0,0.86289 -0.4503,1.29449 -1.35082,1.29449 -0.36687,0 -0.65048,-0.0985 -0.85059,-0.29506 -0.20011,-0.19662 -0.29973,-0.48078 -0.29973,-0.85216 v -0.52399 c 0,-0.50244 0.12181,-0.86823 0.36638,-1.0976 0.25572,-0.24031 0.66163,-0.36071 1.2175,-0.36071 z" /></g></g><metadata
     id="metadata80"><rdf:RDF><cc:Work
         rdf:about=""><dc:title>Federation of Bangladesh Chambers of Commerce and Industries (FBCCI) - বাংলাদেশ শিল্প ও বণিক সমিতি</dc:title></cc:Work></rdf:RDF></metadata></svg>
